<svg width="300" height="300" viewBox="0 0 300 300" fill="none" xmlns="http://www.w3.org/2000/svg">
<path d="M283.45 0H16.55C7.4125 0 0 7.4125 0 16.55V283.45C0 292.6 7.4125 300 16.55 300H160.225V183.825H121.113V138.563H160.225V105.125C160.225 66.3875 183.9 45.3125 218.462 45.3125C235.025 45.3125 249.263 46.525 253.413 47.075V87.575H229.4C210.65 87.575 207 96.5875 207 109.713V138.6H251.8L245.988 183.975H207V300H283.437C292.6 300 300 292.6 300 283.45V16.55C300 7.4125 292.6 0 283.45 0Z" fill="white"/>
</svg>
