<svg width="302" height="302" viewBox="0 0 302 302" fill="none" xmlns="http://www.w3.org/2000/svg">
<path d="M151 3.7373C67.5725 3.7373 0 71.3476 0 154.737C0 221.467 43.2615 278.054 103.246 297.999C110.796 299.42 113.565 294.752 113.565 290.738C113.565 287.152 113.439 277.651 113.376 265.068C71.3727 274.178 62.514 244.809 62.514 244.809C55.6435 227.381 45.7152 222.725 45.7152 222.725C32.0372 213.363 46.7722 213.552 46.7722 213.552C61.9352 214.609 69.9004 229.105 69.9004 229.105C83.3646 252.195 105.247 245.526 113.879 241.663C115.238 231.898 119.126 225.242 123.443 221.467C89.9079 217.692 54.662 204.706 54.662 146.848C54.662 130.363 60.5132 116.899 70.2024 106.329C68.5037 102.516 63.4074 87.1648 71.5237 66.3646C71.5237 66.3646 84.1699 62.3127 113.049 81.8421C125.129 78.4823 137.964 76.8213 150.799 76.7458C163.634 76.8213 176.469 78.4823 188.549 81.8421C217.239 62.3127 229.885 66.3646 229.885 66.3646C238.001 87.1648 232.905 102.516 231.395 106.329C241.021 116.899 246.872 130.363 246.872 146.848C246.872 204.857 211.576 217.629 177.979 221.341C183.264 225.871 188.171 235.132 188.171 249.276C188.171 269.485 187.982 285.717 187.982 290.625C187.982 294.588 190.625 299.307 198.364 297.797C258.776 277.991 302 221.366 302 154.737C302 71.3476 234.39 3.7373 151 3.7373" fill="white"/>
</svg>
