<svg width="320" height="320" viewBox="0 0 320 320" fill="none" xmlns="http://www.w3.org/2000/svg">
<ellipse cx="159.822" cy="175.226" rx="138.875" ry="143.649" fill="#292526" stroke="#E5E5E5" stroke-linejoin="bevel" stroke-dasharray="4 4"/>
<path d="M318.75 240.742C318.75 257.873 305.329 271.731 288.808 271.731C272.288 271.731 258.866 257.873 258.866 240.742C258.866 223.611 272.288 209.753 288.808 209.753C305.329 209.753 318.75 223.611 318.75 240.742Z" fill="white" stroke="white"/>
<g clip-path="url(#clip0)">
<path d="M293.85 219.63L295.401 219.986L296.66 220.45L297.677 220.985L298.452 221.555L299.038 222.161L299.469 222.768L299.745 223.356L299.917 223.891L299.986 224.354L300.021 224.711L300.004 224.943V234.464L299.917 235.587L299.693 236.568L299.331 237.388L298.883 238.065L298.366 238.618L297.797 239.064L297.194 239.403L296.591 239.652L296.022 239.831L295.505 239.955L295.056 240.027L294.695 240.062H284.404L283.215 240.151L282.198 240.401L281.336 240.793L280.629 241.275L280.06 241.845L279.595 242.469L279.25 243.111L278.992 243.771L278.819 244.395L278.698 244.966L278.63 245.447L278.595 245.821V251.277H274.751L274.389 251.224L273.907 251.099L273.355 250.885L272.752 250.564L272.131 250.1L271.511 249.459L270.907 248.638L270.356 247.586L269.873 246.285L269.511 244.716L269.27 242.844L269.184 240.651L269.287 238.476L269.563 236.621L269.977 235.07L270.528 233.804L271.149 232.788L271.838 232.003L272.562 231.415L273.286 230.987L273.976 230.702L274.596 230.523L275.148 230.434L275.561 230.416H275.837L275.941 230.434H290.006V228.954H279.94L279.922 224.051L279.888 223.392L279.974 222.785L280.164 222.233L280.457 221.733L280.888 221.27L281.422 220.86L282.077 220.503L282.835 220.182L283.714 219.915L284.714 219.701L285.817 219.523L287.041 219.416L288.368 219.344L289.816 219.309L292.006 219.398L293.85 219.63V219.63ZM282.991 223.16L282.594 223.748L282.456 224.479L282.594 225.21L282.991 225.816L283.559 226.209L284.266 226.369L284.973 226.209L285.542 225.816L285.938 225.21L286.076 224.479L285.938 223.748L285.542 223.16L284.973 222.768L284.266 222.607L283.559 222.768L282.991 223.16ZM305.554 230.203L306.037 230.31L306.588 230.523L307.191 230.844L307.812 231.326L308.432 231.95L309.036 232.788L309.587 233.84L310.07 235.141L310.432 236.71L310.673 238.565L310.76 240.758L310.656 242.951L310.38 244.805L309.967 246.338L309.415 247.604L308.794 248.621L308.105 249.423L307.381 250.011L306.657 250.439L305.968 250.725L305.347 250.885L304.795 250.974L304.382 251.01L304.106 250.992H289.937V252.454H300.004L300.021 257.375L300.055 258.017L299.969 258.623L299.779 259.176L299.486 259.693L299.056 260.139L298.521 260.566L297.866 260.923L297.108 261.226L296.229 261.494L295.229 261.725L294.126 261.886L292.902 262.011L291.575 262.082L290.127 262.1L287.938 262.029L286.093 261.779L284.542 261.422L283.284 260.977L282.267 260.442L281.491 259.853L280.905 259.247L280.474 258.641L280.198 258.053L280.026 257.518L279.957 257.072L279.922 256.715L279.94 256.483V246.962L280.026 245.821L280.25 244.859L280.612 244.038L281.06 243.361L281.577 242.79L282.146 242.362L282.749 242.006L283.352 241.756L283.921 241.578L284.438 241.471L284.887 241.4L285.249 241.364L285.473 241.346H295.539L296.728 241.257L297.745 241.007L298.607 240.633L299.314 240.134L299.883 239.563L300.348 238.939L300.693 238.297L300.952 237.655L301.124 237.031L301.245 236.461L301.314 235.962L301.348 235.587V230.131H304.951L305.192 230.149L305.554 230.203V230.203ZM294.401 255.61L294.005 256.198L293.867 256.929L294.005 257.66L294.401 258.249L294.97 258.659L295.677 258.801L296.384 258.659L296.953 258.249L297.349 257.66L297.487 256.929L297.349 256.198L296.953 255.61L296.384 255.2L295.677 255.057L294.97 255.2L294.401 255.61Z" fill="#9A38FC"/>
</g>
<path d="M189.816 31.6136C189.816 48.7442 176.394 62.6023 159.874 62.6023C143.353 62.6023 129.932 48.7442 129.932 31.6136C129.932 14.483 143.353 0.625 159.874 0.625C176.394 0.625 189.816 14.483 189.816 31.6136Z" fill="white" stroke="white"/>
<path d="M171.016 26.0873C168.316 13.792 161.947 9.75177 161.263 8.20601C160.51 7.1158 159.696 5.03931 159.696 5.03931C159.691 5.08132 159.687 5.10786 159.685 5.14766V5.17641H159.683C159.679 5.20958 159.676 5.2317 159.674 5.26266V5.29583H159.67C159.67 5.31794 159.666 5.33563 159.666 5.35332V5.41082H159.659C159.657 5.42851 159.657 5.45062 159.653 5.4661V5.51254H159.649C159.649 5.52802 159.649 5.54571 159.644 5.55898V5.60321H159.64C159.64 5.62532 159.638 5.65186 159.636 5.67397V5.6784C159.629 5.71599 159.623 5.75358 159.617 5.78897V5.80666H159.612C159.61 5.8155 159.606 5.82435 159.606 5.83319V5.87079H159.6V5.91944H159.589V5.95924H159.578V6.00568H159.57V6.0477H159.561V6.08529H159.548V6.11625H159.54V6.15606H159.531V6.18702H159.52V6.21576H159.514V6.24894H159.505C159.503 6.25115 159.503 6.25557 159.503 6.25778V6.27989H159.497C159.495 6.28432 159.495 6.28874 159.495 6.29316V6.30643H159.49C159.488 6.31307 159.486 6.32412 159.486 6.32854C159.48 6.34402 159.471 6.3595 159.465 6.37498V6.37941C159.461 6.38383 159.456 6.39046 159.454 6.39489V6.41258H159.446V6.43027H159.435V6.44796H159.428V6.47007H159.416V6.50103H159.407V6.50988H159.399V6.52757H159.39V6.5519H159.381V6.56959H159.369V6.59391H159.36V6.6116H159.349V6.62929H159.343V6.65141H159.332V6.6691H159.324V6.68237H159.315V6.70006H159.302V6.71996H159.294V6.73323H159.283V6.75092H159.275V6.77525H159.264V6.78409H159.257V6.80178H159.245V6.81063H159.236V6.83274H159.228V6.84159H159.219V6.85928H159.208V6.87255H159.202L159.198 6.88139V6.89024H159.193C159.191 6.89466 159.189 6.89466 159.189 6.89908V6.90129H159.187C159.185 6.90793 159.183 6.91235 159.178 6.91677V6.92341H159.176C159.166 6.93668 159.159 6.94994 159.151 6.96321V6.96542C159.146 6.96985 159.136 6.97869 159.131 6.98754V6.99196H159.129C159.127 6.99417 159.123 6.99638 159.123 6.99859V7.00523H159.119L159.112 7.01186V7.01407H159.11C159.11 7.01629 159.106 7.0185 159.104 7.02292V7.03177H159.097L159.093 7.03619V7.04061H159.089C159.089 7.04503 159.084 7.04503 159.084 7.04725V7.05388H159.076C159.076 7.05609 159.074 7.0583 159.071 7.06051V7.07378H159.065V7.08263H159.057V7.0959H159.048V7.11359H159.037V7.0959H159.027V7.10474H159.018V7.11801H159.007V7.1357H158.997V7.14455H158.988V7.15781H158.98V7.16666H158.971V7.18435H158.958V7.1932H158.95V7.20647H158.939V7.21531H158.93V7.22637H158.92V7.24848H158.915V7.25733H158.903V7.26838H158.894V7.27281H158.885V7.28165H158.875V7.30377H158.866V7.31261H158.856V7.32146H158.847V7.33473H158.836V7.34357H158.826V7.35242H158.817V7.36126H158.809V7.38338H158.8V7.39443H158.787V7.40328H158.779V7.41212H158.768V7.42539H158.759V7.43424H158.749V7.44972H158.74V7.45856H158.727V7.47183H158.723V7.48068H158.714V7.48952H158.704V7.49837H158.695V7.51164H158.685V7.52048H158.678C158.676 7.52269 158.676 7.5249 158.676 7.5249V7.52933H158.672L158.663 7.53817C158.663 7.53817 158.659 7.5426 158.655 7.54481V7.55808H158.646V7.56913H158.637V7.57798H158.629V7.58682H158.623L158.616 7.59346V7.60009H158.612L158.608 7.60451V7.61115H158.603C158.593 7.62442 158.588 7.63326 158.573 7.64653C158.569 7.65095 158.556 7.66201 158.548 7.66865C158.522 7.68634 158.49 7.71508 158.464 7.73941C158.447 7.75047 158.43 7.76595 158.417 7.777V7.77921H158.415C158.381 7.80796 158.349 7.8345 158.31 7.86546V7.86767C158.259 7.9119 158.21 7.95391 158.152 8.00478V8.00256H158.148C158.026 8.1065 157.898 8.2237 157.75 8.35417V8.35639H157.748C157.387 8.68367 156.957 9.10384 156.476 9.61245L156.444 9.64562L156.435 9.65447C153.528 12.7659 148.946 19.2497 148.463 29.7272C148.421 30.5941 148.429 31.4366 148.476 32.2571V32.277C148.709 36.4056 149.962 39.9306 151.529 42.7943V42.7965C152.153 43.9376 152.827 44.9747 153.509 45.9035V45.9057C155.865 49.1233 158.27 51.0295 158.883 51.4917C159.826 53.7539 159.738 57.6371 159.738 57.6371L161.115 58.1126C161.115 58.1126 160.835 54.351 161.229 52.5355C161.35 51.9671 161.639 51.4828 161.975 51.0715C162.201 50.9057 162.873 50.4059 163.679 49.6452C163.717 49.6032 163.738 49.5656 163.773 49.5258C167.024 46.39 173.098 38.6679 171.016 26.0873V26.0873Z" fill="#9A38FC"/>
<path d="M60.884 240.742C60.884 257.873 47.4627 271.731 30.942 271.731C14.4213 271.731 1 257.873 1 240.742C1 223.611 14.4213 209.753 30.942 209.753C47.4627 209.753 60.884 223.611 60.884 240.742Z" fill="white" stroke="white"/>
<g clip-path="url(#clip1)">
<path d="M14.7305 221.577H47.155L44.2059 256.015L30.9072 259.907L17.6842 256.014L14.7305 221.577ZM25.5865 237.149L25.2283 232.808L40.7597 232.812L41.1148 228.625L20.7707 228.62L21.8484 241.413H35.9392L35.4359 246.885L30.9428 248.169L26.3802 246.875L26.0899 243.505H22.0615L22.571 250.167L30.9428 252.482L39.2481 250.178L40.3968 237.15H25.5865V237.149Z" fill="#9A38FC"/>
</g>
<defs>
<clipPath id="clip0">
<rect width="41.3691" height="42.7913" fill="white" transform="translate(269.184 219.309)"/>
</clipPath>
<clipPath id="clip1">
<rect width="37.0566" height="38.3307" fill="white" transform="translate(12.4141 221.577)"/>
</clipPath>
</defs>
</svg>
