<svg width="300" height="300" viewBox="0 0 300 300" fill="none" xmlns="http://www.w3.org/2000/svg">
<path d="M150 0C109.25 0 104.162 0.1875 88.1625 0.9C72.1875 1.65 61.3125 4.1625 51.75 7.875C41.8875 11.7 33.5125 16.8375 25.175 25.175C16.8375 33.5125 11.6875 41.875 7.875 51.75C4.1625 61.3125 1.6375 72.1875 0.9 88.1625C0.15 104.162 0 109.25 0 150C0 190.75 0.1875 195.838 0.9 211.838C1.65 227.8 4.1625 238.688 7.875 248.25C11.7 258.1 16.8375 266.488 25.175 274.825C33.5125 283.15 41.875 288.313 51.75 292.125C61.325 295.825 72.2 298.362 88.1625 299.1C104.162 299.85 109.25 300 150 300C190.75 300 195.838 299.812 211.838 299.1C227.8 298.35 238.688 295.825 248.25 292.125C258.1 288.3 266.488 283.15 274.825 274.825C283.15 266.488 288.313 258.138 292.125 248.25C295.825 238.688 298.362 227.8 299.1 211.838C299.85 195.838 300 190.75 300 150C300 109.25 299.812 104.162 299.1 88.1625C298.35 72.2 295.825 61.3 292.125 51.75C288.3 41.8875 283.15 33.5125 274.825 25.175C266.488 16.8375 258.138 11.6875 248.25 7.875C238.688 4.1625 227.8 1.6375 211.838 0.9C195.838 0.15 190.75 0 150 0ZM150 27C190.038 27 194.813 27.2 210.625 27.8875C225.25 28.575 233.187 31 238.462 33.075C245.487 35.7875 250.462 39.0375 255.737 44.275C260.975 49.525 264.225 54.5125 266.937 61.5375C268.987 66.8125 271.437 74.75 272.1 89.375C272.812 105.2 272.975 109.95 272.975 150C272.975 190.05 272.787 194.813 272.05 210.625C271.287 225.25 268.85 233.187 266.788 238.462C263.988 245.487 260.8 250.462 255.55 255.737C250.313 260.975 245.25 264.225 238.3 266.937C233.05 268.987 224.988 271.437 210.363 272.1C194.438 272.812 189.75 272.975 149.625 272.975C109.488 272.975 104.8 272.787 88.8875 272.05C74.25 271.287 66.1875 268.85 60.9375 266.788C53.825 263.988 48.9375 260.8 43.7 255.55C38.4375 250.313 35.075 245.25 32.45 238.3C30.3875 233.05 27.9625 224.988 27.2 210.363C26.6375 194.613 26.4375 189.75 26.4375 149.812C26.4375 109.862 26.6375 104.988 27.2 89.05C27.9625 74.425 30.3875 66.375 32.45 61.125C35.075 54 38.4375 49.125 43.7 43.8625C48.9375 38.625 53.825 35.25 60.9375 32.6375C66.1875 30.5625 74.075 28.125 88.7 27.375C104.638 26.8125 109.325 26.625 149.437 26.625L150 27V27ZM150 72.975C107.438 72.975 72.975 107.475 72.975 150C72.975 192.562 107.475 227.025 150 227.025C192.562 227.025 227.025 192.525 227.025 150C227.025 107.438 192.525 72.975 150 72.975ZM150 200C122.375 200 100 177.625 100 150C100 122.375 122.375 100 150 100C177.625 100 200 122.375 200 150C200 177.625 177.625 200 150 200ZM248.075 69.9375C248.075 79.875 240 87.9375 230.075 87.9375C220.138 87.9375 212.075 79.8625 212.075 69.9375C212.075 60.0125 220.15 51.95 230.075 51.95C239.988 51.9375 248.075 60.0125 248.075 69.9375Z" fill="white"/>
</svg>
