<svg width="315" height="315" viewBox="0 0 315 315" fill="none" xmlns="http://www.w3.org/2000/svg">
<path d="M268.367 268.432H221.721V195.339C221.721 177.909 221.366 155.479 197.413 155.479C173.093 155.479 169.378 174.444 169.378 194.053V268.432H122.732V118.125H167.541V138.613H168.144C174.405 126.801 189.63 114.332 212.376 114.332C259.639 114.332 268.38 145.438 268.38 185.929V268.432H268.367ZM70.0481 97.5581C55.0331 97.5581 42.9712 85.4044 42.9712 70.455C42.9712 55.5188 55.0462 43.3781 70.0481 43.3781C85.0106 43.3781 97.1381 55.5188 97.1381 70.455C97.1381 85.4044 84.9975 97.5581 70.0481 97.5581ZM93.4369 268.432H46.6594V118.125H93.4369V268.432ZM291.703 0H23.2444C10.395 0 0 10.1587 0 22.6931V292.307C0 304.854 10.395 315 23.2444 315H291.664C304.5 315 315 304.854 315 292.307V22.6931C315 10.1587 304.5 0 291.664 0H291.703Z" fill="white"/>
</svg>
