<svg width="851" height="850" viewBox="0 0 851 850" fill="none" xmlns="http://www.w3.org/2000/svg">
<path d="M820.036 459.462C820.069 461.119 820.091 462.779 820.102 464.441L819.602 464.444C819.608 465.274 819.611 466.104 819.611 466.936C819.611 467.207 819.61 467.479 819.61 467.75C819.609 468.309 819.606 468.868 819.602 469.427L820.102 469.43C820.091 471.092 820.069 472.751 820.036 474.408L819.536 474.398C819.503 476.053 819.459 477.705 819.404 479.355L819.904 479.371C819.848 481.023 819.782 482.672 819.706 484.318L819.206 484.295C819.129 485.948 819.041 487.599 818.942 489.246L819.441 489.276C819.341 490.935 819.23 492.59 819.108 494.242L818.61 494.205C818.488 495.855 818.356 497.503 818.212 499.147L818.711 499.19C818.567 500.837 818.413 502.48 818.247 504.121L817.75 504.071C817.584 505.718 817.407 507.362 817.219 509.003L817.716 509.06C817.527 510.709 817.328 512.355 817.117 513.998L816.621 513.934C816.411 515.575 816.19 517.212 815.958 518.846L816.453 518.916C816.221 520.553 815.978 522.186 815.724 523.815L815.23 523.738C814.976 525.375 814.71 527.008 814.434 528.637L814.927 528.721C814.649 530.356 814.361 531.988 814.062 533.617L813.57 533.527C813.272 535.153 812.962 536.775 812.642 538.395L813.133 538.492C812.813 540.113 812.481 541.731 812.14 543.345L811.651 543.241C811.308 544.862 810.954 546.479 810.589 548.092L811.077 548.202C810.712 549.819 810.336 551.432 809.949 553.042L809.463 552.925C809.077 554.532 808.68 556.136 808.273 557.735L808.757 557.858C808.35 559.46 807.931 561.058 807.503 562.651L807.02 562.521C806.589 564.122 806.148 565.718 805.697 567.309L806.178 567.446C805.726 569.04 805.263 570.63 804.79 572.216L804.311 572.073C803.838 573.656 803.356 575.236 802.863 576.811L803.34 576.96C802.846 578.539 802.341 580.113 801.826 581.683L801.351 581.527C800.835 583.1 800.309 584.669 799.772 586.234L800.245 586.396C799.708 587.963 799.16 589.525 798.602 591.083L798.132 590.914C797.575 592.47 797.008 594.021 796.43 595.567L796.899 595.742C796.32 597.292 795.731 598.838 795.132 600.38L794.666 600.198C794.066 601.741 793.456 603.279 792.837 604.811L793.3 604.999C792.68 606.534 792.049 608.064 791.409 609.589L790.948 609.396C790.308 610.919 789.658 612.438 788.999 613.951L789.457 614.151C788.796 615.669 788.125 617.181 787.443 618.689L786.988 618.484C786.307 619.991 785.616 621.493 784.916 622.991L785.368 623.202C784.667 624.702 783.956 626.196 783.235 627.685L782.785 627.467C782.065 628.954 781.335 630.436 780.596 631.913L781.043 632.136C780.302 633.617 779.551 635.092 778.79 636.562L778.346 636.333C777.586 637.801 776.817 639.265 776.038 640.722L776.479 640.958C775.699 642.418 774.91 643.872 774.111 645.321L773.673 645.08C772.875 646.527 772.068 647.968 771.251 649.404L771.686 649.651C770.868 651.09 770.04 652.524 769.203 653.952L768.771 653.699C767.935 655.125 767.09 656.546 766.236 657.961L766.664 658.219C765.808 659.636 764.943 661.047 764.069 662.452L763.645 662.188C762.772 663.591 761.89 664.989 760.999 666.38L761.42 666.65C760.528 668.044 759.626 669.432 758.716 670.814L758.298 670.539C757.389 671.919 756.471 673.294 755.544 674.662L755.957 674.942C755.029 676.313 754.092 677.677 753.146 679.035L752.735 678.749C751.791 680.105 750.837 681.455 749.875 682.799L750.281 683.09C749.318 684.435 748.346 685.774 747.365 687.107L746.962 686.811C745.983 688.142 744.995 689.467 743.998 690.786L744.397 691.087C743.398 692.408 742.392 693.722 741.377 695.029L740.982 694.723C739.968 696.028 738.947 697.327 737.916 698.619L738.307 698.931C737.276 700.224 736.236 701.512 735.188 702.792L734.801 702.476C733.755 703.755 732.7 705.028 731.636 706.293L732.019 706.615C730.954 707.883 729.882 709.144 728.8 710.398L728.422 710.072C727.343 711.323 726.257 712.567 725.162 713.805L725.537 714.136C724.441 715.376 723.336 716.608 722.224 717.834L721.854 717.498C720.743 718.722 719.625 719.939 718.498 721.15L718.864 721.491C717.737 722.702 716.601 723.907 715.457 725.105L715.096 724.76C713.955 725.954 712.807 727.142 711.651 728.322L712.008 728.672C710.851 729.854 709.686 731.029 708.513 732.198L708.16 731.843C706.989 733.01 705.81 734.169 704.623 735.321L704.972 735.68C703.785 736.833 702.59 737.979 701.388 739.117L701.044 738.754C699.845 739.89 698.638 741.018 697.424 742.139L697.763 742.506C696.548 743.629 695.325 744.744 694.095 745.852L693.76 745.48C692.531 746.586 691.295 747.685 690.052 748.777L690.382 749.153C689.139 750.244 687.889 751.328 686.632 752.405L686.306 752.025C685.052 753.099 683.79 754.165 682.522 755.224L682.842 755.608C681.572 756.669 680.295 757.721 679.01 758.767L678.695 758.379C677.412 759.423 676.122 760.459 674.826 761.487L675.137 761.879C673.841 762.907 672.539 763.927 671.231 764.939L670.925 764.543C669.618 765.553 668.305 766.556 666.985 767.551L667.286 767.95C665.965 768.946 664.636 769.934 663.301 770.915L663.005 770.512C661.672 771.491 660.332 772.462 658.986 773.425L659.277 773.832C657.933 774.793 656.583 775.747 655.226 776.693L654.94 776.282C653.585 777.227 652.224 778.163 650.856 779.092L651.137 779.505C649.768 780.435 648.392 781.356 647.01 782.27L646.734 781.853C645.355 782.764 643.969 783.668 642.577 784.564L642.847 784.984C641.458 785.878 640.062 786.764 638.661 787.641L638.395 787.218C636.995 788.094 635.589 788.962 634.177 789.822L634.437 790.249C633.024 791.111 631.604 791.963 630.178 792.808L629.923 792.378C628.501 793.22 627.073 794.054 625.639 794.88L625.889 795.313C624.457 796.138 623.02 796.954 621.576 797.762L621.332 797.325C619.891 798.132 618.444 798.931 616.991 799.721L617.23 800.16C615.775 800.951 614.315 801.733 612.849 802.507L612.615 802.065C611.154 802.836 609.688 803.599 608.216 804.353L608.444 804.798C606.973 805.552 605.498 806.296 604.017 807.033L603.794 806.585C602.315 807.32 600.83 808.047 599.34 808.765L599.557 809.216C598.065 809.935 596.568 810.645 595.066 811.346L594.854 810.893C593.358 811.592 591.856 812.282 590.35 812.963L590.556 813.419C589.051 814.1 587.54 814.771 586.025 815.435L585.825 814.977C584.311 815.639 582.792 816.292 581.269 816.937L581.464 817.398C579.938 818.043 578.408 818.68 576.872 819.308L576.683 818.845C575.155 819.47 573.623 820.085 572.086 820.692L572.269 821.157C570.733 821.764 569.191 822.362 567.645 822.95L567.467 822.483C565.923 823.071 564.375 823.65 562.821 824.22L562.993 824.69C561.438 825.26 559.878 825.822 558.313 826.375L558.147 825.903C556.591 826.453 555.031 826.993 553.467 827.525L553.628 827.998C552.064 828.529 550.496 829.052 548.923 829.565L548.768 829.089C547.197 829.602 545.621 830.105 544.042 830.6L544.191 831.077C542.609 831.572 541.024 832.057 539.433 832.534L539.29 832.055C537.711 832.528 536.127 832.992 534.539 833.447L534.677 833.928C533.09 834.383 531.498 834.829 529.902 835.265L529.77 834.783C528.176 835.219 526.578 835.646 524.976 836.063L525.102 836.547C523.498 836.965 521.89 837.374 520.278 837.774L520.158 837.288C518.558 837.685 516.955 838.072 515.348 838.45L515.462 838.936C513.855 839.314 512.243 839.683 510.628 840.042L510.52 839.554C508.907 839.913 507.29 840.262 505.669 840.603L505.772 841.092C504.15 841.432 502.523 841.764 500.894 842.085L500.797 841.595C499.181 841.914 497.561 842.223 495.938 842.524L496.029 843.015C494.405 843.316 492.778 843.607 491.148 843.888L491.063 843.395C489.435 843.677 487.803 843.948 486.168 844.211L486.247 844.704C484.61 844.967 482.969 845.22 481.326 845.464L481.252 844.969C479.623 845.21 477.99 845.442 476.354 845.665L476.422 846.16C474.786 846.383 473.148 846.596 471.506 846.799L471.445 846.303C469.805 846.507 468.162 846.7 466.516 846.885L466.572 847.382C464.924 847.566 463.273 847.741 461.62 847.906L461.57 847.409C459.93 847.573 458.288 847.727 456.643 847.872L456.687 848.37C455.043 848.515 453.397 848.65 451.748 848.775L451.71 848.277C450.063 848.402 448.413 848.518 446.761 848.625L446.793 849.124C445.138 849.23 443.481 849.327 441.821 849.414L441.795 848.915C440.149 849.002 438.5 849.079 436.848 849.146L436.869 849.646C435.221 849.713 433.571 849.771 431.919 849.819L431.905 849.319C430.254 849.367 428.601 849.406 426.946 849.435L426.955 849.935C425.297 849.964 423.637 849.983 421.975 849.993L421.972 849.493C421.142 849.497 420.311 849.5 419.48 849.5C418.649 849.5 417.818 849.497 416.988 849.493L416.985 849.993C415.323 849.983 413.663 849.964 412.006 849.935L412.015 849.435C410.359 849.406 408.706 849.367 407.056 849.319L407.041 849.819C405.389 849.771 403.739 849.713 402.092 849.646L402.112 849.146C400.461 849.079 398.812 849.002 397.166 848.915L397.139 849.414C395.479 849.327 393.822 849.23 392.168 849.124L392.2 848.625C390.547 848.518 388.897 848.402 387.25 848.277L387.212 848.775C385.563 848.65 383.917 848.515 382.274 848.37L382.318 847.872C380.672 847.727 379.03 847.573 377.391 847.409L377.341 847.906C375.687 847.741 374.036 847.566 372.388 847.382L372.444 846.885C370.798 846.7 369.155 846.507 367.516 846.303L367.454 846.799C365.813 846.596 364.174 846.383 362.539 846.16L362.606 845.665C360.97 845.442 359.338 845.21 357.708 844.969L357.635 845.464C355.991 845.22 354.351 844.967 352.713 844.704L352.793 844.211C351.158 843.948 349.526 843.677 347.897 843.395L347.812 843.888C346.182 843.607 344.555 843.316 342.932 843.015L343.023 842.524C341.399 842.223 339.78 841.914 338.163 841.595L338.067 842.085C336.437 841.764 334.811 841.432 333.188 841.092L333.291 840.603C331.67 840.262 330.053 839.913 328.44 839.554L328.332 840.042C326.717 839.683 325.105 839.314 323.498 838.936L323.612 838.45C322.005 838.072 320.402 837.685 318.802 837.288L318.682 837.773C317.07 837.374 315.462 836.965 313.858 836.547L313.984 836.063C312.382 835.646 310.784 835.219 309.19 834.783L309.058 835.265C307.462 834.829 305.871 834.383 304.283 833.928L304.421 833.447C302.833 832.992 301.25 832.528 299.67 832.055L299.527 832.534C297.937 832.057 296.351 831.572 294.769 831.077L294.918 830.6C293.339 830.105 291.763 829.602 290.192 829.089L290.037 829.565C288.465 829.052 286.896 828.529 285.332 827.998L285.493 827.525C283.929 826.993 282.369 826.453 280.813 825.903L280.647 826.375C279.082 825.822 277.522 825.26 275.967 824.69L276.139 824.22C274.586 823.65 273.037 823.071 271.493 822.483L271.315 822.95C269.769 822.361 268.227 821.764 266.691 821.157L266.875 820.692C265.337 820.085 263.805 819.469 262.277 818.845L262.088 819.308C260.552 818.68 259.022 818.043 257.497 817.398L257.691 816.937C256.168 816.292 254.649 815.639 253.136 814.976L252.935 815.435C251.42 814.771 249.909 814.099 248.404 813.419L248.61 812.963C247.104 812.282 245.602 811.592 244.106 810.893L243.895 811.346C242.392 810.645 240.895 809.934 239.403 809.215L239.62 808.765C238.13 808.047 236.645 807.32 235.166 806.585L234.943 807.033C233.462 806.296 231.987 805.552 230.516 804.798L230.744 804.353C229.272 803.599 227.806 802.836 226.345 802.065L226.111 802.507C224.645 801.733 223.185 800.951 221.73 800.16L221.969 799.72C220.516 798.93 219.069 798.132 217.628 797.325L217.384 797.762C215.94 796.954 214.503 796.138 213.071 795.313L213.321 794.88C211.887 794.054 210.459 793.22 209.037 792.378L208.782 792.808C207.356 791.963 205.936 791.11 204.523 790.249L204.783 789.822C203.371 788.962 201.965 788.094 200.565 787.217L200.299 787.641C198.898 786.764 197.502 785.878 196.113 784.984L196.383 784.564C194.991 783.668 193.605 782.764 192.226 781.853L191.95 782.27C190.568 781.356 189.192 780.435 187.823 779.505L188.104 779.091C186.736 778.163 185.375 777.227 184.02 776.282L183.734 776.693C182.377 775.747 181.027 774.793 179.683 773.832L179.974 773.425C178.628 772.462 177.288 771.491 175.955 770.511L175.659 770.914C174.324 769.934 172.996 768.946 171.674 767.95L171.975 767.551C170.655 766.556 169.342 765.553 168.035 764.543L167.73 764.939C166.421 763.926 165.119 762.907 163.824 761.879L164.134 761.487C162.838 760.459 161.548 759.423 160.265 758.379L159.95 758.766C158.666 757.721 157.388 756.668 156.118 755.608L156.438 755.224C155.17 754.165 153.908 753.099 152.654 752.025L152.329 752.405C151.071 751.328 149.821 750.244 148.578 749.153L148.908 748.777C147.665 747.685 146.429 746.586 145.2 745.48L144.865 745.852C143.635 744.744 142.412 743.629 141.197 742.506L141.536 742.139C140.322 741.018 139.115 739.889 137.916 738.754L137.573 739.117C136.37 737.979 135.176 736.833 133.989 735.68L134.337 735.321C133.15 734.169 131.971 733.01 130.8 731.843L130.447 732.197C129.274 731.029 128.109 729.854 126.952 728.672L127.309 728.322C126.153 727.142 125.005 725.954 123.864 724.759L123.503 725.105C122.359 723.907 121.224 722.702 120.096 721.49L120.462 721.15C119.335 719.939 118.217 718.722 117.106 717.498L116.736 717.834C115.624 716.608 114.52 715.375 113.424 714.136L113.798 713.805C112.703 712.567 111.617 711.323 110.538 710.071L110.16 710.398C109.079 709.144 108.006 707.883 106.941 706.615L107.324 706.293C106.261 705.027 105.206 703.755 104.159 702.476L103.772 702.792C102.724 701.512 101.684 700.224 100.653 698.931L101.044 698.619C100.014 697.326 98.9918 696.028 97.9785 694.722L97.5835 695.029C96.5683 693.721 95.5617 692.407 94.5636 691.087L94.9624 690.785C93.9657 689.467 92.9774 688.142 91.9979 686.811L91.5952 687.107C90.6143 685.774 89.6422 684.435 88.6787 683.09L89.0853 682.798C88.123 681.455 87.1694 680.105 86.2247 678.749L85.8145 679.034C84.8684 677.677 83.9311 676.312 83.0028 674.942L83.4167 674.662C82.4895 673.294 81.5713 671.919 80.662 670.539L80.2445 670.814C79.334 669.432 78.4326 668.044 77.5401 666.65L77.9612 666.38C77.0702 664.989 76.1882 663.591 75.3154 662.188L74.8908 662.452C74.0169 661.047 73.1521 659.636 72.2965 658.219L72.7245 657.961C71.87 656.546 71.0248 655.125 70.1888 653.699L69.7575 653.952C68.9204 652.524 68.0926 651.09 67.2742 649.651L67.7088 649.404C66.8923 647.968 66.0851 646.526 65.2873 645.079L64.8494 645.321C64.0506 643.872 63.2612 642.418 62.4813 640.958L62.9223 640.722C62.1434 639.264 61.3741 637.801 60.6143 636.333L60.1702 636.562C59.4097 635.092 58.6587 633.617 57.9174 632.136L58.3645 631.912C57.6252 630.436 56.8955 628.954 56.1755 627.467L55.7254 627.685C55.0045 626.196 54.2932 624.702 53.5917 623.202L54.0446 622.99C53.3441 621.493 52.6533 619.991 51.9724 618.483L51.5167 618.689C50.8356 617.181 50.1644 615.669 49.503 614.151L49.9614 613.951C49.3019 612.437 48.6522 610.919 48.0126 609.396L47.5516 609.589C46.911 608.064 46.2805 606.534 45.66 604.999L46.1235 604.811C45.5038 603.278 44.8942 601.741 44.2946 600.198L43.8286 600.379C43.2295 598.838 42.6405 597.292 42.0616 595.742L42.53 595.567C41.9527 594.02 41.3855 592.469 40.8284 590.914L40.3577 591.082C39.7999 589.525 39.2523 587.963 38.715 586.396L39.188 586.234C38.6514 584.669 38.1251 583.1 37.6091 581.527L37.134 581.683C36.6192 580.113 36.1147 578.539 35.6205 576.96L36.0977 576.811C35.6045 575.236 35.1217 573.656 34.6494 572.073L34.1702 572.215C33.6972 570.63 33.2346 569.04 32.7824 567.446L33.2635 567.309C32.812 565.717 32.3709 564.121 31.9405 562.521L31.4577 562.651C31.0289 561.058 30.6106 559.46 30.2029 557.858L30.6874 557.735C30.2802 556.136 29.8835 554.532 29.4974 552.925L29.0113 553.042C28.6246 551.432 28.2486 549.819 27.8833 548.202L28.371 548.092C28.0065 546.479 27.6527 544.862 27.3096 543.241L26.8205 543.345C26.4788 541.731 26.1477 540.113 25.8273 538.492L26.3178 538.395C25.9978 536.775 25.6885 535.153 25.39 533.527L24.8982 533.617C24.5993 531.988 24.3111 530.356 24.0337 528.721L24.5267 528.637C24.2503 527.008 23.9847 525.375 23.73 523.738L23.2359 523.815C22.9822 522.186 22.7392 520.553 22.5071 518.916L23.0021 518.846C22.7703 517.212 22.5492 515.575 22.339 513.934L21.8431 513.998C21.6326 512.355 21.433 510.709 21.2443 509.06L21.7411 509.003C21.5533 507.362 21.3765 505.718 21.2105 504.071L20.713 504.121C20.5478 502.48 20.3933 500.837 20.2498 499.19L20.7479 499.147C20.6045 497.503 20.472 495.856 20.3505 494.206L19.8518 494.242C19.7301 492.59 19.6194 490.935 19.5196 489.277L20.0187 489.247C19.9196 487.599 19.8314 485.949 19.7542 484.295L19.2548 484.319C19.1779 482.672 19.1118 481.023 19.0567 479.372L19.5565 479.355C19.5014 477.706 19.4573 476.053 19.4242 474.399L18.9243 474.409C18.8912 472.752 18.869 471.092 18.8579 469.43L19.3579 469.427C19.3524 468.597 19.3496 467.767 19.3496 466.936C19.3496 466.105 19.3524 465.274 19.3579 464.444L18.8579 464.441C18.869 462.779 18.8912 461.12 18.9243 459.463L19.4242 459.473C19.4573 457.818 19.5014 456.166 19.5565 454.516L19.0567 454.5C19.1118 452.848 19.1779 451.199 19.2548 449.553L19.7542 449.576C19.8314 447.923 19.9196 446.272 20.0187 444.625L19.5196 444.595C19.6193 442.937 19.7301 441.281 19.8518 439.629L20.3505 439.666C20.472 438.016 20.6045 436.368 20.7479 434.724L20.2497 434.681C20.3933 433.034 20.5478 431.391 20.713 429.75L21.2105 429.801C21.3765 428.153 21.5533 426.509 21.741 424.868L21.2443 424.811C21.4329 423.162 21.6326 421.516 21.843 419.874L22.339 419.937C22.5492 418.296 22.7702 416.659 23.0021 415.025L22.5071 414.955C22.7392 413.318 22.9822 411.685 23.2359 410.056L23.73 410.133C23.9847 408.496 24.2503 406.863 24.5267 405.234L24.0337 405.15C24.3111 403.515 24.5993 401.883 24.8982 400.254L25.39 400.345C25.6885 398.718 25.9978 397.096 26.3178 395.476L25.8273 395.38C26.1477 393.758 26.4788 392.14 26.8205 390.526L27.3096 390.63C27.6527 389.009 28.0065 387.392 28.371 385.779L27.8833 385.669C28.2486 384.052 28.6247 382.439 29.0113 380.829L29.4975 380.946C29.8836 379.339 30.2802 377.735 30.6874 376.136L30.2029 376.013C30.6107 374.411 31.0289 372.813 31.4577 371.22L31.9405 371.35C32.371 369.75 32.812 368.154 33.2635 366.562L32.7825 366.425C33.2346 364.831 33.6972 363.241 34.1703 361.655L34.6494 361.798C35.1218 360.215 35.6046 358.635 36.0977 357.06L35.6206 356.911C36.1147 355.332 36.6193 353.758 37.1341 352.188L37.6092 352.344C38.1252 350.771 38.6515 349.202 39.1881 347.637L38.7151 347.475C39.2524 345.908 39.8 344.346 40.3578 342.788L40.8285 342.957C41.3855 341.401 41.9528 339.85 42.5301 338.304L42.0617 338.129C42.6405 336.579 43.2296 335.033 43.8286 333.491L44.2947 333.673C44.8942 332.13 45.5039 330.593 46.1236 329.06L45.66 328.872C46.2805 327.337 46.9111 325.807 47.5516 324.282L48.0126 324.475C48.6523 322.952 49.3019 321.433 49.9614 319.92L49.5031 319.72C50.1644 318.202 50.8357 316.69 51.5168 315.182L51.9725 315.388C52.6534 313.88 53.3442 312.378 54.0447 310.88L53.5918 310.669C54.2933 309.169 55.0046 307.675 55.7255 306.186L56.1755 306.404C56.8955 304.917 57.6252 303.435 58.3645 301.958L57.9174 301.735C58.6588 300.254 59.4097 298.779 60.1703 297.309L60.6144 297.538C61.3742 296.07 62.1435 294.606 62.9224 293.149L62.4814 292.913C63.2613 291.453 64.0507 289.999 64.8495 288.55L65.2874 288.791C66.0852 287.344 66.8924 285.903 67.7089 284.467L67.2743 284.22C68.0927 282.781 68.9205 281.347 69.7576 279.919L70.1889 280.172C71.0249 278.746 71.8701 277.325 72.7246 275.91L72.2966 275.652C73.1522 274.235 74.017 272.824 74.8909 271.419L75.3155 271.683C76.1883 270.28 77.0703 268.882 77.9613 267.491L77.5402 267.221C78.4326 265.827 79.3341 264.439 80.2446 263.057L80.6621 263.332C81.5714 261.952 82.4896 260.577 83.4168 259.209L83.0028 258.929C83.9312 257.559 84.8684 256.194 85.8145 254.836L86.2248 255.122C87.1695 253.766 88.1231 252.416 89.0854 251.073L88.6788 250.781C89.6423 249.436 90.6144 248.097 91.5953 246.764L91.998 247.06C92.9775 245.729 93.9658 244.404 94.9625 243.085L94.5637 242.784C95.5618 241.464 96.5684 240.149 97.5836 238.842L97.9786 239.148C98.9919 237.843 100.014 236.544 101.044 235.252L100.653 234.94C101.684 233.647 102.724 232.359 103.772 231.079L104.159 231.395C105.206 230.116 106.261 228.844 107.324 227.578L106.941 227.256C108.006 225.988 109.079 224.727 110.16 223.473L110.539 223.8C111.617 222.548 112.704 221.304 113.798 220.066L113.424 219.735C114.52 218.495 115.624 217.263 116.736 216.037L117.106 216.373C118.217 215.149 119.335 213.932 120.462 212.721L120.096 212.38C121.224 211.169 122.359 209.964 123.503 208.766L123.865 209.112C125.005 207.917 126.153 206.729 127.309 205.549L126.952 205.199C128.109 204.017 129.274 202.842 130.447 201.674L130.8 202.028C131.971 200.861 133.15 199.702 134.337 198.55L133.989 198.191C135.176 197.038 136.37 195.892 137.573 194.754L137.916 195.117C139.116 193.981 140.322 192.853 141.536 191.732L141.197 191.365C142.412 190.242 143.635 189.127 144.866 188.019L145.2 188.391C146.429 187.285 147.665 186.186 148.908 185.094L148.578 184.718C149.821 183.627 151.071 182.543 152.329 181.466L152.654 181.846C153.908 180.772 155.17 179.706 156.439 178.647L156.118 178.263C157.388 177.202 158.666 176.15 159.95 175.104L160.266 175.492C161.548 174.448 162.838 173.412 164.134 172.384L163.824 171.992C165.119 170.964 166.421 169.944 167.73 168.932L168.036 169.328C169.342 168.318 170.655 167.315 171.975 166.32L171.674 165.921C172.996 164.925 174.324 163.937 175.659 162.956L175.955 163.359C177.288 162.38 178.628 161.409 179.974 160.446L179.683 160.039C181.027 159.078 182.377 158.124 183.734 157.178L184.02 157.589C185.375 156.644 186.736 155.708 188.104 154.779L187.823 154.366C189.192 153.436 190.568 152.515 191.95 151.601L192.226 152.018C193.606 151.107 194.992 150.203 196.384 149.307L196.113 148.887C197.502 147.993 198.898 147.107 200.3 146.23L200.565 146.654C201.965 145.777 203.371 144.909 204.783 144.049L204.523 143.622C205.937 142.761 207.356 141.908 208.782 141.063L209.037 141.493C210.459 140.651 211.887 139.817 213.321 138.991L213.072 138.558C214.503 137.733 215.941 136.917 217.384 136.109L217.628 136.546C219.069 135.739 220.517 134.94 221.969 134.151L221.731 133.711C223.185 132.92 224.645 132.138 226.111 131.364L226.345 131.806C227.806 131.035 229.272 130.272 230.745 129.518L230.517 129.073C231.987 128.319 233.462 127.575 234.944 126.838L235.166 127.286C236.645 126.551 238.13 125.824 239.62 125.106L239.403 124.656C240.895 123.937 242.392 123.226 243.895 122.525L244.106 122.978C245.602 122.279 247.104 121.589 248.61 120.908L248.404 120.452C249.91 119.772 251.42 119.1 252.935 118.436L253.136 118.894C254.649 118.232 256.168 117.579 257.692 116.934L257.497 116.473C259.022 115.828 260.553 115.191 262.088 114.563L262.277 115.026C263.805 114.401 265.337 113.786 266.875 113.179L266.691 112.714C268.228 112.107 269.769 111.509 271.315 110.921L271.493 111.388C273.037 110.8 274.586 110.221 276.139 109.651L275.967 109.181C277.522 108.611 279.082 108.049 280.647 107.496L280.814 107.968C282.369 107.418 283.929 106.878 285.493 106.346L285.332 105.873C286.896 105.342 288.465 104.819 290.038 104.306L290.193 104.782C291.764 104.269 293.339 103.766 294.919 103.271L294.769 102.794C296.351 102.299 297.937 101.814 299.527 101.337L299.67 101.816C301.25 101.343 302.833 100.879 304.421 100.424L304.283 99.9431C305.871 99.4881 307.462 99.0423 309.058 98.6057L309.19 99.088C310.784 98.652 312.382 98.2251 313.984 97.8076L313.858 97.3237C315.462 96.9057 317.07 96.4969 318.682 96.0975L318.802 96.5828C320.402 96.1864 322.005 95.7993 323.612 95.4215L323.498 94.9347C325.105 94.5568 326.717 94.1882 328.332 93.8289L328.44 94.317C330.053 93.9581 331.67 93.6086 333.291 93.2685L333.188 92.7791C334.811 92.4386 336.437 92.1074 338.067 91.7858L338.163 92.2763C339.78 91.9573 341.399 91.6476 343.023 91.3473L342.932 90.8557C344.555 90.5553 346.182 90.2644 347.812 89.9829L347.897 90.4756C349.526 90.1944 351.157 89.9227 352.793 89.6604L352.713 89.1667C354.351 88.9041 355.991 88.651 357.635 88.4075L357.708 88.9021C359.337 88.6606 360.97 88.4286 362.606 88.2061L362.539 87.7106C364.174 87.4881 365.812 87.2751 367.454 87.0716L367.516 87.5678C369.155 87.3645 370.798 87.1706 372.444 86.9864L372.388 86.4895C374.036 86.305 375.687 86.1301 377.341 85.9648L377.39 86.4623C379.03 86.2985 380.672 86.1441 382.317 85.9992L382.274 85.5011C383.917 85.3564 385.563 85.2212 387.212 85.0956L387.25 85.5941C388.897 85.4686 390.547 85.3527 392.199 85.2463L392.167 84.7473C393.822 84.6408 395.479 84.5439 397.139 84.4567L397.165 84.956C398.812 84.8694 400.461 84.7924 402.112 84.725L402.092 84.2254C403.739 84.1582 405.389 84.1004 407.041 84.0522L407.056 84.552C408.706 84.5039 410.359 84.4653 412.014 84.4363L412.006 83.9364C413.663 83.9074 415.323 83.8881 416.985 83.8784L416.988 84.3784C417.818 84.3735 418.649 84.3711 419.48 84.3711C420.311 84.3711 421.142 84.3735 421.972 84.3784L421.975 83.8784C423.637 83.8881 425.297 83.9074 426.954 83.9364L426.945 84.4363C428.601 84.4653 430.254 84.5039 431.904 84.552L431.919 84.0522C433.571 84.1004 435.221 84.1581 436.868 84.2254L436.848 84.725C438.499 84.7924 440.148 84.8694 441.795 84.9559L441.821 84.4566C443.481 84.5439 445.138 84.6408 446.793 84.7473L446.761 85.2463C448.413 85.3526 450.063 85.4686 451.71 85.5941L451.748 85.0956C453.397 85.2212 455.043 85.3564 456.686 85.5011L456.643 85.9992C458.288 86.1441 459.93 86.2985 461.57 86.4623L461.619 85.9648C463.273 86.1301 464.924 86.305 466.572 86.4895L466.516 86.9864C468.162 87.1706 469.805 87.3644 471.445 87.5677L471.506 87.0715C473.148 87.2751 474.786 87.4881 476.422 87.7106L476.354 88.206C477.99 88.4286 479.623 88.6606 481.252 88.902L481.325 88.4074C482.969 88.651 484.61 88.9041 486.247 89.1667L486.168 89.6604C487.803 89.9226 489.435 90.1944 491.063 90.4756L491.148 89.9829C492.778 90.2644 494.405 90.5553 496.029 90.8557L495.938 91.3473C497.561 91.6476 499.181 91.9573 500.797 92.2763L500.894 91.7858C502.524 92.1075 504.15 92.4386 505.772 92.7792L505.67 93.2685C507.29 93.6086 508.907 93.9582 510.52 94.317L510.629 93.8289C512.244 94.1882 513.855 94.5569 515.462 94.9348L515.348 95.4215C516.955 95.7993 518.559 96.1865 520.158 96.5828L520.278 96.0975C521.89 96.4969 523.498 96.9057 525.102 97.3238L524.976 97.8076C526.578 98.2252 528.176 98.652 529.77 99.0881L529.902 98.6058C531.498 99.0424 533.09 99.4882 534.677 99.9431L534.54 100.424C536.127 100.879 537.711 101.343 539.29 101.816L539.434 101.337C541.024 101.814 542.61 102.299 544.191 102.794L544.042 103.271C545.622 103.766 547.197 104.269 548.768 104.782L548.923 104.306C550.496 104.82 552.064 105.342 553.628 105.873L553.467 106.346C555.032 106.878 556.591 107.418 558.147 107.968L558.313 107.496C559.878 108.049 561.438 108.611 562.993 109.181L562.821 109.651C564.375 110.221 565.924 110.8 567.468 111.388L567.646 110.921C569.192 111.51 570.733 112.107 572.269 112.714L572.086 113.179C573.623 113.786 575.156 114.402 576.683 115.026L576.872 114.563C578.408 115.191 579.938 115.828 581.464 116.473L581.269 116.934C582.793 117.579 584.311 118.232 585.825 118.895L586.025 118.437C587.541 119.1 589.051 119.772 590.556 120.452L590.35 120.908C591.857 121.589 593.358 122.279 594.854 122.978L595.066 122.525C596.568 123.226 598.065 123.937 599.557 124.656L599.34 125.106C600.83 125.824 602.315 126.551 603.794 127.286L604.017 126.838C605.498 127.575 606.974 128.319 608.444 129.073L608.216 129.518C609.688 130.272 611.155 131.035 612.616 131.806L612.849 131.364C614.315 132.138 615.775 132.92 617.23 133.711L616.991 134.151C618.444 134.941 619.891 135.739 621.332 136.546L621.577 136.109C623.02 136.917 624.457 137.733 625.889 138.558L625.639 138.991C627.073 139.817 628.501 140.651 629.923 141.493L630.178 141.063C631.604 141.908 633.024 142.761 634.438 143.622L634.177 144.049C635.59 144.909 636.996 145.777 638.395 146.654L638.661 146.23C640.062 147.107 641.458 147.993 642.847 148.887L642.577 149.307C643.969 150.203 645.355 151.107 646.734 152.018L647.01 151.601C648.392 152.515 649.768 153.436 651.137 154.366L650.857 154.78C652.224 155.708 653.586 156.644 654.94 157.589L655.226 157.179C656.583 158.124 657.933 159.078 659.277 160.039L658.986 160.446C660.332 161.409 661.672 162.38 663.006 163.36L663.302 162.957C664.636 163.937 665.965 164.925 667.286 165.921L666.985 166.32C668.305 167.315 669.618 168.318 670.925 169.328L671.231 168.932C672.54 169.945 673.842 170.964 675.137 171.992L674.826 172.384C676.123 173.412 677.412 174.448 678.695 175.492L679.01 175.105C680.295 176.15 681.572 177.203 682.842 178.263L682.522 178.647C683.791 179.706 685.052 180.772 686.307 181.846L686.632 181.466C687.889 182.543 689.139 183.627 690.382 184.718L690.052 185.094C691.296 186.186 692.532 187.285 693.76 188.391L694.095 188.02C695.325 189.127 696.548 190.243 697.763 191.365L697.424 191.732C698.638 192.853 699.845 193.982 701.044 195.117L701.388 194.754C702.59 195.892 703.785 197.038 704.972 198.191L704.623 198.55C705.81 199.702 706.989 200.861 708.16 202.028L708.513 201.674C709.686 202.842 710.851 204.017 712.009 205.199L711.651 205.549C712.807 206.729 713.955 207.917 715.096 209.112L715.458 208.766C716.601 209.964 717.737 211.169 718.864 212.381L718.498 212.721C719.625 213.932 720.744 215.149 721.854 216.373L722.224 216.037C723.337 217.263 724.441 218.496 725.537 219.735L725.162 220.066C726.257 221.304 727.343 222.548 728.422 223.8L728.801 223.473C729.882 224.727 730.955 225.988 732.019 227.256L731.636 227.578C732.7 228.844 733.755 230.116 734.801 231.395L735.188 231.079C736.236 232.359 737.276 233.647 738.307 234.941L737.917 235.252C738.947 236.545 739.969 237.843 740.982 239.149L741.377 238.842C742.392 240.15 743.399 241.464 744.397 242.784L743.998 243.086C744.995 244.404 745.983 245.729 746.962 247.06L747.365 246.764C748.346 248.097 749.318 249.436 750.281 250.782L749.875 251.073C750.837 252.416 751.791 253.766 752.736 255.122L753.146 254.837C754.092 256.195 755.029 257.559 755.958 258.929L755.544 259.209C756.471 260.577 757.389 261.952 758.298 263.332L758.716 263.057C759.626 264.439 760.528 265.827 761.42 267.221L760.999 267.491C761.89 268.882 762.772 270.28 763.645 271.683L764.069 271.419C764.943 272.824 765.808 274.235 766.664 275.652L766.236 275.911C767.09 277.325 767.935 278.746 768.771 280.172L769.203 279.919C770.04 281.347 770.868 282.781 771.686 284.22L771.251 284.467C772.068 285.903 772.875 287.345 773.673 288.792L774.111 288.55C774.91 289.999 775.699 291.453 776.479 292.913L776.038 293.149C776.817 294.607 777.586 296.07 778.346 297.538L778.79 297.309C779.551 298.779 780.302 300.254 781.043 301.735L780.596 301.959C781.335 303.435 782.065 304.917 782.785 306.404L783.235 306.186C783.956 307.675 784.667 309.169 785.369 310.669L784.916 310.881C785.616 312.378 786.307 313.88 786.988 315.388L787.444 315.182C788.125 316.69 788.796 318.203 789.457 319.72L788.999 319.92C789.658 321.434 790.308 322.952 790.948 324.475L791.409 324.282C792.049 325.807 792.68 327.337 793.3 328.872L792.837 329.06C793.456 330.593 794.066 332.13 794.666 333.673L795.132 333.492C795.731 335.033 796.32 336.579 796.899 338.129L796.43 338.304C797.008 339.851 797.575 341.402 798.132 342.957L798.603 342.789C799.16 344.346 799.708 345.909 800.245 347.475L799.772 347.637C800.309 349.202 800.835 350.771 801.351 352.344L801.826 352.188C802.341 353.758 802.846 355.333 803.34 356.911L802.863 357.06C803.356 358.636 803.839 360.215 804.311 361.799L804.79 361.656C805.263 363.241 805.726 364.831 806.178 366.425L805.697 366.562C806.148 368.154 806.589 369.75 807.02 371.35L807.503 371.22C807.931 372.814 808.35 374.411 808.757 376.013L808.273 376.136C808.68 377.736 809.077 379.339 809.463 380.946L809.949 380.829C810.336 382.439 810.712 384.052 811.077 385.669L810.589 385.779C810.954 387.392 811.308 389.009 811.651 390.63L812.14 390.526C812.482 392.14 812.813 393.758 813.133 395.379L812.642 395.476C812.962 397.096 813.272 398.718 813.57 400.345L814.062 400.254C814.361 401.883 814.649 403.515 814.927 405.15L814.434 405.234C814.71 406.863 814.976 408.496 815.23 410.133L815.724 410.056C815.978 411.685 816.221 413.318 816.453 414.955L815.958 415.025C816.19 416.659 816.411 418.296 816.621 419.937L817.117 419.873C817.328 421.516 817.527 423.162 817.716 424.811L817.219 424.868C817.407 426.509 817.584 428.153 817.75 429.8L818.247 429.75C818.412 431.391 818.567 433.034 818.711 434.681L818.212 434.724C818.356 436.368 818.488 438.015 818.61 439.665L819.108 439.629C819.23 441.281 819.341 442.936 819.441 444.594L818.942 444.624C819.041 446.272 819.129 447.922 819.206 449.576L819.706 449.552C819.782 451.199 819.848 452.848 819.904 454.499L819.404 454.516C819.459 456.165 819.503 457.818 819.536 459.472L820.036 459.462Z" fill="#292526" stroke="#E5E5E5" stroke-dasharray="5 5"/>
<path d="M175.32 681.797C175.32 727.876 136.245 765.269 87.9972 765.269C39.749 765.269 0.674805 727.876 0.674805 681.797C0.674805 635.718 39.749 598.325 87.9972 598.325C136.245 598.325 175.32 635.718 175.32 681.797Z" fill="white" stroke="white"/>
<g clip-path="url(#clip0)">
<path d="M41.7666 631.293H134.017L125.627 721.863L87.7908 732.099L50.1658 721.859L41.7666 631.293ZM116.841 649.829L58.9428 649.816L59.8784 660.829L104.356 660.838L103.236 672.246H74.0674L75.1217 683.053H102.278L100.671 697.85L87.8874 701.227L74.9021 697.825L74.0762 688.963H62.6108L63.8847 705.155L87.8918 712.308L111.495 705.881L116.841 649.833V649.829Z" fill="#9A38FC"/>
</g>
<path d="M849.675 681.797C849.675 727.876 810.601 765.269 762.353 765.269C714.104 765.269 675.03 727.876 675.03 681.797C675.03 635.718 714.104 598.325 762.353 598.325C810.601 598.325 849.675 635.718 849.675 681.797Z" fill="white" stroke="white"/>
<g clip-path="url(#clip1)">
<path d="M798.683 631.043C812.193 633.279 816.024 642.108 815.739 651.358L815.805 651.226L809.725 727.413L730.682 732.592H730.754C724.192 732.328 709.569 731.753 708.9 712.203L716.228 699.426L728.785 727.476L731.025 732.468L743.52 693.523L743.386 693.553L743.457 693.425L784.683 706.015L778.464 682.884L774.055 666.274L813.342 663.85L810.603 661.678L782.398 639.693L798.696 631L798.683 631.043V631.043ZM708.9 711.99V712.101V711.978V711.99ZM731.751 652.295C747.613 637.248 768.086 628.355 775.948 635.941C783.796 643.509 775.48 661.942 759.587 676.981C743.716 692.024 723.493 701.402 715.649 693.834C707.782 686.266 715.849 667.355 731.738 652.308L731.751 652.295V652.295Z" fill="#9A38FC"/>
</g>
<path d="M493.622 83.9717C493.622 130.051 454.548 167.443 406.3 167.443C358.052 167.443 318.978 130.051 318.978 83.9717C318.978 37.8925 358.052 0.5 406.3 0.5C454.548 0.5 493.622 37.8925 493.622 83.9717Z" fill="white" stroke="white"/>
<path d="M489.769 113.734V124.194H508.404C512.222 124.194 518.776 121.362 519.004 113.445V109.399C519.004 102.638 513.533 98.6504 508.404 98.6504H499.115V93.7961H517.522V83.2783H499.856C495.297 83.2783 489.199 87.0924 489.199 94.2006V97.8413C489.199 104.95 495.24 108.59 499.856 108.59C512.678 108.648 496.778 108.59 508.632 108.59V113.676L489.769 113.734V113.734ZM389.925 111.191C389.925 111.191 399.898 110.324 399.898 97.2634C399.898 84.2029 387.816 82.9893 387.816 82.9893H366.046V124.194H376.988V114.254L386.448 124.194H402.633L389.925 111.191V111.191ZM385.707 102.753H376.988V93.3337H385.764C385.764 93.3337 388.215 94.2584 388.215 98.0147C388.215 101.771 385.707 102.753 385.707 102.753V102.753ZM426.91 83.2783H415.797C407.876 83.2783 405.198 90.5598 405.198 94.0272V124.194H416.31V116.97H426.739V124.194H437.51V94.0272C437.51 85.2431 429.646 83.2783 426.91 83.2783V83.2783ZM426.739 105.296H416.253V95.2986C416.253 95.2986 416.253 93.0448 419.73 93.0448H423.548C426.625 93.0448 426.682 95.2986 426.682 95.2986V105.296H426.739V105.296ZM442.582 83.2783H454.151V124.194H442.582V83.2783V83.2783ZM470.393 113.618V83.2783H458.881V124.194H485.951V113.618H470.393V113.618ZM297.375 124.194H342.396C342.396 124.194 333.791 84.3763 362.285 68.2529C368.497 65.1901 388.272 53.7477 420.641 78.0194C421.667 77.1526 422.636 76.4591 422.636 76.4591C422.636 76.4591 393.002 46.4661 360.006 49.8179C343.422 51.3205 323.02 66.6348 311.052 86.8613C299.085 107.088 297.375 124.194 297.375 124.194V124.194ZM297.375 124.194H342.396C342.396 124.194 333.791 84.3763 362.285 68.2529C368.497 65.1901 388.272 53.7477 420.641 78.0194C421.667 77.1526 422.636 76.4591 422.636 76.4591C422.636 76.4591 393.002 46.4661 360.006 49.8179C343.422 51.3205 323.02 66.6348 311.052 86.8613C299.085 107.088 297.375 124.194 297.375 124.194V124.194ZM297.375 124.194H342.396C342.396 124.194 333.791 84.3763 362.285 68.2529C368.497 65.1901 388.272 53.7477 420.641 78.0194C421.667 77.1526 422.636 76.4591 422.636 76.4591C422.636 76.4591 393.002 46.4661 360.006 49.8179C343.365 51.3205 322.963 66.6348 310.995 86.8613C299.028 107.088 297.375 124.194 297.375 124.194V124.194ZM391.178 53.0542L391.406 49.1823C390.893 48.8933 389.469 48.1998 385.878 47.1596L385.65 50.9737C387.531 51.6094 389.355 52.3029 391.178 53.0542V53.0542ZM385.764 65.3056L385.536 68.9464C387.417 69.0042 389.298 69.2353 391.178 69.6399L391.406 66.0569C389.469 65.6524 387.588 65.4212 385.764 65.3056V65.3056ZM364.679 47.2752H365.248L364.109 43.75C362.342 43.75 360.518 43.8656 358.638 44.0967L359.721 47.5063C361.373 47.333 363.026 47.2752 364.679 47.2752V47.2752ZM367.414 68.5419L368.725 72.5294C370.377 71.7203 372.03 71.0268 373.683 70.5067L372.429 66.6926C370.491 67.2705 368.839 67.9062 367.414 68.5419V68.5419ZM341.541 53.3431L338.977 49.3556C337.552 50.1069 336.07 50.916 334.532 51.8406L337.153 55.8859C338.635 54.9612 340.059 54.0944 341.541 53.3431V53.3431ZM353.224 79.3486L355.959 83.5094C356.928 82.0647 358.068 80.7355 359.322 79.4064L356.757 75.4767C355.446 76.6902 354.25 78.0194 353.224 79.3486V79.3486ZM344.96 97.9569L349.577 101.655C349.805 99.4017 350.203 97.1479 350.773 94.8941L346.67 91.6C345.929 93.7383 345.416 95.8765 344.96 97.9569V97.9569ZM319.999 70.5067L315.953 66.9238C314.472 68.3685 313.047 69.8132 311.736 71.258L316.124 75.0721C317.321 73.5118 318.632 71.9515 319.999 70.5067V70.5067ZM302.789 96.3388L296.235 93.9116C295.152 96.3966 293.956 99.2861 293.386 100.846L299.939 103.274C300.68 101.309 301.877 98.477 302.789 96.3388ZM344.106 112.636C344.22 115.698 344.505 118.183 344.79 119.917L351.628 122.402C351.115 120.148 350.602 117.605 350.26 114.889L344.106 112.636V112.636Z" fill="#9A38FC"/>
<defs>
<clipPath id="clip0">
<rect width="105.429" height="100.806" fill="white" transform="translate(35.1777 631.293)"/>
</clipPath>
<clipPath id="clip1">
<rect width="106.905" height="102.218" fill="white" transform="translate(708.9 630.688)"/>
</clipPath>
</defs>
</svg>
